<?xml version="1.0" encoding="iso-8859-1"?>
<!-- Uploaded to: SVG Repo, www.svgrepo.com, Generator: SVG Repo Mixer Tools -->
<svg height="800px" width="800px" version="1.1" id="Layer_1" xmlns="http://www.w3.org/2000/svg" xmlns:xlink="http://www.w3.org/1999/xlink" 
	 viewBox="0 0 512 512" xml:space="preserve">
<path style="fill:#FFD21D;" d="M160.398,227.824c-68.073,0-123.26,55.186-123.26,123.26h246.52
	C283.658,283.01,228.471,227.824,160.398,227.824z"/>
<path style="fill:#10B8FA;" d="M444.07,401.238h32.391c13.85,0,25.077-11.227,25.077-25.077s-11.227-25.077-25.077-25.077H35.526
	c-13.85,0-25.077,11.227-25.077,25.077s11.227,25.077,25.077,25.077h25.125c13.85,0,25.077,11.227,25.077,25.077
	S74.5,451.392,60.651,451.392h-1.093c-13.85,0-25.077,11.227-25.077,25.077s11.227,25.077,25.077,25.077h392.871
	c13.85,0,25.077-11.227,25.077-25.077s-11.227-25.077-25.077-25.077h-8.359c-13.85,0-25.077-11.227-25.077-25.077
	S430.22,401.238,444.07,401.238z"/>
<path d="M397.785,390.79h-51.968c-5.77,0-10.449,4.679-10.449,10.449s4.679,10.449,10.449,10.449h51.968
	c5.77,0,10.449-4.679,10.449-10.449S403.556,390.79,397.785,390.79z"/>
<path d="M113.157,411.687h197.135c5.77,0,10.449-4.679,10.449-10.449s-4.679-10.449-10.449-10.449H113.157
	c-5.77,0-10.449,4.679-10.449,10.449S107.387,411.687,113.157,411.687z"/>
<path d="M397.785,440.943h-15.548c-5.77,0-10.449,4.679-10.449,10.449s4.679,10.449,10.449,10.449h15.548
	c5.77,0,10.449-4.679,10.449-10.449S403.556,440.943,397.785,440.943z"/>
<path d="M197.539,440.943h-24.428c-5.77,0-10.449,4.679-10.449,10.449s4.679,10.449,10.449,10.449h24.428
	c5.77,0,10.449-4.679,10.449-10.449S203.309,440.943,197.539,440.943z"/>
<path d="M137.585,440.943h-23.383c-5.77,0-10.449,4.679-10.449,10.449s4.679,10.449,10.449,10.449h23.383
	c5.77,0,10.449-4.679,10.449-10.449S143.355,440.943,137.585,440.943z"/>
<path d="M346.712,440.943H233.065c-5.771,0-10.449,4.679-10.449,10.449s4.678,10.449,10.449,10.449h113.647
	c5.771,0,10.449-4.679,10.449-10.449S352.483,440.943,346.712,440.943z"/>
<path d="M476.461,340.636H448.54v-85.914c13.887,4.433,23.974,17.457,23.974,32.796c0,5.77,4.679,10.449,10.449,10.449
	s10.449-4.679,10.449-10.449c0-20.088-10.765-37.705-26.826-47.397c9.859-0.922,20.044,2.381,27.577,9.915
	c4.081,4.079,10.697,4.079,14.778,0c4.08-4.081,4.08-10.696,0-14.778c-17.021-17.019-42.458-20.596-63.03-10.759
	c1.015-12.997,9.392-24.877,22.404-29.673c5.415-1.997,8.184-8.004,6.189-13.419c-1.997-5.416-8.001-8.179-13.419-6.189
	c-20.707,7.636-34.118,26.431-35.96,47.081c-5.939-2.138-12.265-3.254-18.762-3.254c-14.77,0-28.662,5.758-39.118,16.214
	c-4.08,4.081-4.08,10.696,0,14.778c4.081,4.079,10.697,4.079,14.778,0c6.509-6.51,15.153-10.093,24.34-10.093
	c1.101,0,2.193,0.054,3.276,0.156c-16.084,9.687-26.866,27.317-26.866,47.42c0,5.77,4.678,10.449,10.449,10.449
	c5.77,0,10.449-4.679,10.449-10.449c0-15.34,10.086-28.363,23.974-32.796v85.914H313.779V129.822
	c42.286,4.467,75.15,35.645,75.15,73.348c0,5.771,4.679,10.449,10.449,10.449s10.449-4.678,10.449-10.449
	c0-43.015-32.344-79.427-76.514-90.984c32.202-13.815,72.231-9.007,98.954,14.467c1.984,1.744,4.443,2.599,6.892,2.599
	c2.901,0,5.789-1.202,7.854-3.553c3.81-4.335,3.381-10.938-0.954-14.745c-20.064-17.625-46.634-27.331-74.813-27.331
	c-18.416,0-36.131,4.17-51.805,11.962c1.018-14.166-1.532-28.45-7.679-41.848c-11.328-24.696-33.988-44.094-62.168-53.22
	c-5.491-1.777-11.383,1.231-13.16,6.722c-1.777,5.49,1.232,11.382,6.722,13.16c22.632,7.33,40.715,22.657,49.611,42.052
	c5.721,12.469,7.345,25.951,4.866,39.032c-18.016-11.59-39.595-17.86-62.222-17.86c-28.179,0-54.748,9.706-74.813,27.331
	c-4.335,3.809-4.764,10.41-0.954,14.745c3.809,4.335,10.41,4.764,14.745,0.954c26.724-23.474,66.753-28.282,98.954-14.467
	c-44.17,11.557-76.514,47.969-76.514,90.984c0,5.771,4.679,10.449,10.449,10.449s10.449-4.678,10.449-10.449
	c0-37.703,32.864-68.881,75.15-73.348v203.193c-8.849-65.211-64.883-115.639-132.483-115.639
	c-70.562,0-128.525,54.943-133.372,124.296C11.528,345.491,0,359.502,0,376.161c0,19.589,15.936,35.526,35.526,35.526h25.125
	c8.066,0,14.628,6.562,14.628,14.628s-6.562,14.628-14.628,14.628h-1.093c-19.589,0-35.526,15.936-35.526,35.526
	s15.936,35.526,35.526,35.526h392.871c19.589,0,35.526-15.936,35.526-35.526s-15.936-35.526-35.526-35.526h-8.359
	c-8.066,0-14.628-6.562-14.628-14.628s6.562-14.628,14.628-14.628h32.391c19.589,0,35.526-15.936,35.526-35.526
	C511.986,356.572,496.05,340.636,476.461,340.636z M160.398,238.273c58.681,0,107.032,45.038,112.323,102.363H48.076
	C53.365,283.312,101.717,238.273,160.398,238.273z M476.461,390.79H444.07c-19.589,0-35.526,15.936-35.526,35.526
	s15.936,35.526,35.526,35.526h8.359c8.066,0,14.628,6.562,14.628,14.628s-6.562,14.628-14.628,14.628H59.558
	c-8.066,0-14.628-6.562-14.628-14.628s6.562-14.628,14.628-14.628h1.093c19.589,0,35.526-15.936,35.526-35.526
	S80.24,390.79,60.651,390.79H35.526c-8.066,0-14.628-6.562-14.628-14.628s6.562-14.628,14.628-14.628h440.935
	c8.066,0,14.628,6.562,14.628,14.628S484.527,390.79,476.461,390.79z"/>
</svg>