<?xml version="1.0" encoding="iso-8859-1"?>
<!-- Uploaded to: SVG Repo, www.svgrepo.com, Generator: SVG Repo Mixer Tools -->
<svg height="800px" width="800px" version="1.1" id="Layer_1" xmlns="http://www.w3.org/2000/svg" xmlns:xlink="http://www.w3.org/1999/xlink" 
	 viewBox="0 0 512 512" xml:space="preserve">
<path style="fill:#3F5968;" d="M104.914,501.527c4.132-14.462,202.462-320.219,202.462-320.219l194.197,320.219H104.914z"/>
<path style="fill:#FFFFFF;" d="M307.376,181.308c0,0-34.27,52.833-74.616,115.614l42.39,42.389l32.02-32.019l32.019,32.019
	l39.845-39.844L307.376,181.308z"/>
<path style="fill:#1EB615;" d="M314.224,501.527h35.605c0-18.308-14.842-33.15-33.149-33.15c-0.53,0-1.054,0.019-1.578,0.044
	c-6.677-26.362-30.555-45.871-58.994-45.871c-26.969,0-49.826,17.548-57.813,41.844c-19.942,0.664-35.908,17.029-35.908,37.133
	h35.604H314.224z"/>
<g>
	<path style="fill:#92E03F;" d="M147.957,252.797c-5.579-15.045-25.769-21.442-25.936-21.496l-0.003-0.004v0.004l-0.007-0.004v0.004
		c-0.045,0.079-11.24,18.129-5.653,33.208c5.588,15.071,25.85,21.471,25.94,21.491v0.008
		C142.297,286.009,153.559,267.904,147.957,252.797z"/>
	<path style="fill:#92E03F;" d="M88.727,396.766c6.694-14.584-3.059-33.384-3.14-33.54v-0.005l-0.002,0.003l-0.003-0.008
		l-0.002,0.003c-0.089,0.024-20.767,4.872-27.48,19.483c-6.705,14.606,3.098,33.461,3.146,33.54l-0.005,0.005
		C61.241,416.247,82.006,411.407,88.727,396.766z"/>
</g>
<g>
	<path style="fill:#FF1A1A;" d="M255.975,163.857c0-10.548-8.553-19.1-19.1-19.1c-2.841,0-5.534,0.625-7.956,1.736
		c-1.518-9.031-9.37-15.912-18.83-15.912c-10.549,0-19.1,8.553-19.1,19.1c0,1.02,0.081,2.019,0.235,2.993
		c-9.249-1.394-18.355,4.185-21.119,13.405c-3.029,10.104,2.707,20.751,12.811,23.781c1.157,0.347,2.32,0.574,3.478,0.697
		c-1.363,2.63-2.138,5.612-2.138,8.777c0,10.548,8.553,19.1,19.101,19.1c7.81,0,14.521-4.69,17.482-11.406
		c1.981,1.72,4.345,3.059,7.021,3.861c10.105,3.029,20.752-2.707,23.782-12.811c1.995-6.652,0.189-13.54-4.161-18.334
		C252.6,176.317,255.975,170.482,255.975,163.857z"/>
	<path style="fill:#FF1A1A;" d="M125.251,35.835c0-8.039-6.518-14.558-14.558-14.558c-2.165,0-4.218,0.476-6.064,1.325
		c-1.157-6.883-7.141-12.128-14.351-12.128c-8.04,0-14.558,6.517-14.558,14.557c0,0.777,0.063,1.539,0.179,2.283
		c-7.048-1.063-13.99,3.19-16.095,10.216c-2.309,7.7,2.063,15.815,9.764,18.124c0.883,0.264,1.768,0.438,2.651,0.532
		c-1.039,2.004-1.629,4.277-1.629,6.69c0,8.039,6.517,14.557,14.558,14.557c5.951,0,11.068-3.575,13.324-8.693
		c1.51,1.31,3.312,2.331,5.35,2.942c7.701,2.309,15.816-2.063,18.125-9.765c1.52-5.069,0.144-10.318-3.172-13.973
		C122.679,45.332,125.251,40.883,125.251,35.835z"/>
	<path style="fill:#FF1A1A;" d="M402.296,48.499c0-12.053-9.773-21.826-21.826-21.826c-3.246,0-6.325,0.714-9.092,1.984
		c-1.735-10.319-10.707-18.184-21.519-18.184c-12.055,0-21.827,9.773-21.827,21.827c0,1.164,0.094,2.306,0.268,3.42
		c-10.569-1.592-20.974,4.783-24.134,15.318c-3.461,11.546,3.094,23.713,14.64,27.174c1.323,0.397,2.652,0.655,3.975,0.797
		c-1.558,3.005-2.443,6.413-2.443,10.03c0,12.054,9.773,21.827,21.827,21.827c8.925,0,16.593-5.36,19.976-13.034
		c2.265,1.964,4.966,3.495,8.023,4.412c11.548,3.461,23.714-3.094,27.176-14.64c2.28-7.602,0.215-15.472-4.756-20.951
		C398.44,62.737,402.296,56.069,402.296,48.499z"/>
</g>
<path d="M29.269,491.079H10.448C4.678,491.079,0,495.757,0,501.527c0,5.769,4.678,10.448,10.448,10.448h18.821
	c5.769,0,10.448-4.679,10.448-10.448C39.717,495.758,35.038,491.079,29.269,491.079z"/>
<path d="M510.188,495.583L316.31,175.889c-3.921-6.465-13.571-6.631-17.699-0.269c-0.496,0.765-200.187,315.458-200.187,315.458
	H64.792c-5.769,0-10.448,4.678-10.448,10.448c0,5.769,4.679,10.448,10.448,10.448h436.782
	C509.823,511.975,514.913,502.403,510.188,495.583z M307.081,200.97l58.769,96.906l-26.661,26.661l-24.631-24.632
	c-4.081-4.079-10.695-4.079-14.777,0l-24.631,24.632l-29.062-29.062C266.991,262.963,287.994,230.431,307.081,200.97z
	 M174.935,491.079c3.921-9.306,12.945-15.884,23.707-16.243c4.382-0.146,8.208-3.013,9.578-7.179
	c6.814-20.731,26.059-34.659,47.887-34.659c23.107,0,43.201,15.621,48.865,37.988c1.219,4.814,5.648,8.09,10.617,7.871
	c0.362-0.018,0.723-0.032,1.089-0.032c8.752,0,16.357,4.982,20.145,12.254H174.935z M359.003,491.079
	c-4.209-17.048-18.469-30.181-36.111-32.708c-10.304-27.595-36.746-46.269-66.785-46.269c-28.566,0-54.003,16.866-65.284,42.612
	c-18.875,3.449-33.652,17.842-37.746,36.365H122.46c17.853-30.054,63.679-102.233,112.068-177.612l33.234,33.233
	c4.081,4.079,10.695,4.079,14.777,0l24.631-24.632l24.631,24.631c2.04,2.039,4.714,3.06,7.388,3.06c2.674,0,5.347-1.021,7.388-3.06
	l30.429-30.428l106.012,174.808L359.003,491.079L359.003,491.079z"/>
<path d="M10.448,116.347h78.16l37.711,63.494c1.883,3.17,5.296,5.113,8.983,5.113h26.768c0.107,0.207,0.205,0.416,0.317,0.623
	c2.69,4.994,6.663,9.021,11.492,11.732c-0.047,0.675-0.07,1.35-0.07,2.026c0,16.294,13.256,29.548,29.549,29.548
	c7.798,0,15.114-3.074,20.525-8.296c15.566,5.256,33.043-3.746,37.767-19.507c1.959-6.533,1.538-13.507-0.983-19.69
	c3.693-5.008,5.759-11.123,5.759-17.532c0-16.294-13.255-29.548-29.548-29.548c-0.504,0-1.004,0.013-1.503,0.038
	c-5.209-8.625-14.646-14.213-25.284-14.213c-13.954,0-25.682,9.726-28.759,22.754c-9.944,2.489-18.209,10.103-21.233,20.192
	c-0.098,0.325-0.182,0.653-0.269,0.98H141.25l-28.337-47.712h34.754c2.978,0,5.813-1.27,7.796-3.492l37.284-41.783h46.888
	l39.776,39.776c2.04,2.039,4.714,3.06,7.388,3.06c2.675,0,5.347-1.021,7.388-3.06c4.08-4.08,4.08-10.696,0-14.777l-25.001-25.001
	h26.704c0.244,0.518,0.501,1.032,0.775,1.541c3.093,5.74,7.736,10.31,13.387,13.266c-0.103,1.05-0.157,2.105-0.157,3.159
	c0,17.796,14.478,32.275,32.275,32.275c8.834,0,17.1-3.612,23.068-9.707c17.19,6.357,36.853-3.454,42.116-21.001
	c2.222-7.412,1.639-15.344-1.405-22.287c4.354-5.59,6.798-12.53,6.798-19.82c0-18.56-16.327-33.61-34.815-32.176
	c-5.589-9.857-16.138-16.297-28.073-16.297c-15.56,0-28.584,11.07-31.611,25.746c-11.258,2.476-20.693,10.945-24.089,22.267
	c-0.212,0.709-0.392,1.423-0.554,2.139H188.063c-2.978,0-5.814,1.27-7.795,3.492l-37.285,41.783H10.448
	C4.678,95.452,0,100.13,0,105.9C0,111.668,4.678,116.347,10.448,116.347z M180.111,169.08c2.849-9.508,14.237-3.21,19.449-10.108
	c2.899-3.838,1.043-7.445,2.186-11.588c0.908-3.292,3.788-5.812,7.17-6.276c3.338-0.458,6.753,1.13,8.528,3.999
	c1.952,3.153,1.557,6.598,4.604,9.258c3.362,2.935,7.226,2.83,11.23,1.625c3.523-1.06,6.924-1.034,9.711,1.753
	c2.505,2.505,3.233,6.42,1.779,9.657c-1.596,3.555-5.583,4.816-7.038,8.579c-3.17,8.202,7.941,13.585,2.851,21.345
	c-2.073,3.16-6.103,4.647-9.725,3.559c-4.097-1.231-6.121-4.675-10.913-4.264c-8.452,0.726-8.841,12.508-17.763,11.29
	c-3.789-0.517-6.882-3.612-7.401-7.4c-0.663-4.846,3.278-8.5,1.416-13.559c-2.005-5.449-6.187-5.552-10.819-7.295
	C181.179,178.071,178.807,173.421,180.111,169.08C181.2,165.446,179.447,171.292,180.111,169.08z M314.177,54.038
	c1.291-4.31,5.185-7.55,9.657-8.045c5.508-0.61,10.305,0.654,13.571-5.145c2.169-3.85,0.341-7.924,1.589-11.928
	c1.217-3.905,4.568-6.944,8.576-7.767c3.974-0.816,8.154,0.585,10.829,3.628c2.965,3.372,2.426,8.144,5.684,11.333
	c7.421,7.263,16.832-3.253,24.429,4.344c2.726,2.726,3.904,6.761,3.062,10.527c-1.163,5.196-5.904,6.446-8.202,10.744
	c-2.692,5.036-0.493,8.819,2.313,12.982c2.696,3.996,2.874,9.184,0.042,13.179c-2.447,3.452-6.742,5.324-10.934,4.71
	c-5.105-0.747-8.055-5.645-13.544-5.176c-5.273,0.45-6.914,3.922-9.546,7.79c-2.519,3.702-6.774,5.75-11.263,5.06
	c-4.468-0.686-8.151-4.021-9.281-8.398c-1.464-5.674,3.264-10.164,1.631-15.776c-1.813-6.23-6.494-6.27-11.591-8.113
	C315.603,65.96,312.458,59.772,314.177,54.038C315.609,49.261,313.304,56.949,314.177,54.038z"/>
<path d="M125.428,221.422c-4.621-1.596-9.918,0.348-12.41,4.558c-2.413,3.996-13.312,23.657-6.457,42.159
	c6.376,17.203,25.536,25.285,31.513,27.426c4.703,2.076,10.383,0.321,13.094-4.039c1.429-2.298,13.759-23.012,6.584-42.362
	C150.798,230.408,128.965,222.58,125.428,221.422C124.355,221.052,128.965,222.58,125.428,221.422
	C124.355,221.052,128.965,222.58,125.428,221.422z M137.194,272.179c-4.503-2.672-9.275-6.536-11.04-11.299
	c-1.775-4.794-0.696-10.804,0.988-15.777c4.507,2.662,9.233,6.512,11.018,11.327C139.942,261.235,138.873,267.226,137.194,272.179z"
	/>
<path d="M63.612,426.422c2.636-0.614,26.002-6.544,34.61-25.299c8.348-18.187-1.535-39.115-3.239-42.472
	c-2.153-4.417-7.282-6.789-12.043-5.544c-4.637,1.15-26.122,7.358-34.334,25.235c-7.863,17.129,0.366,36.531,2.983,41.902
	C53.515,424.909,58.703,427.563,63.612,426.422C66.248,425.808,62.821,426.606,63.612,426.422z M67.594,387.064
	c2.136-4.648,7.148-8.135,11.856-10.459c1.304,5.07,1.923,11.135-0.218,15.801c-2.139,4.658-7.131,8.139-11.821,10.454
	C66.117,397.787,65.475,391.681,67.594,387.064z"/>
<path d="M60.142,62.691c-0.001,0.062-0.001,0.122-0.001,0.184c0,13.787,11.217,25.005,25.006,25.005
	c6.085,0,11.821-2.211,16.269-6.02c19,5.186,36.642-13.635,30.193-32.312c2.634-4.013,4.09-8.76,4.09-13.712
	c0-13.724-11.113-24.902-24.814-25.005C106.351,4.232,98.767,0.025,90.278,0.025c-11.293,0-20.861,7.524-23.955,17.823
	c-7.767,2.449-14.116,8.635-16.528,16.68C46.534,45.405,51.062,56.796,60.142,62.691C60.141,62.752,51.062,56.796,60.142,62.691z
	 M69.811,40.529c0.874-2.917,3.427-2.788,5.874-2.781c3.021,0.008,5.875-1.152,7.926-3.401c1.946-2.135,2.836-4.885,2.711-7.751
	c-0.104-2.402,0.106-4.75,2.871-5.512c2.547-0.702,4.438,0.964,5.134,3.25c0.815,2.677,1.724,4.902,4.054,6.641
	c2.23,1.663,5.104,2.378,7.853,1.952c2.684-0.417,5.36-2.395,7.602,0.263c1.708,2.025,0.917,4.482-0.869,6.069
	c-2.136,1.898-3.832,3.668-4.43,6.596c-0.535,2.62-0.023,5.411,1.406,7.672c1.446,2.287,3.493,4.737,0.869,7.185
	c-2.303,2.149-4.414,0.671-6.571-0.672c-2.557-1.592-5.507-2.174-8.453-1.39c-2.373,0.632-4.454,2.083-5.863,4.094
	c-1.42,2.024-2.101,4.486-5.146,4.207c-3.195-0.293-4.151-3.307-3.285-5.958c1.11-3.397,1.73-6.4-0.073-9.755
	c-1.512-2.814-4.171-4.632-7.248-5.317C71.514,45.329,68.824,43.821,69.811,40.529C70.328,38.803,69.16,42.7,69.811,40.529z"/>
<path d="M396.305,411.166l28.535,47.01c1.966,3.24,5.411,5.029,8.942,5.029c1.847,0,3.717-0.49,5.411-1.517
	c4.934-2.994,6.505-9.421,3.51-14.352l-28.535-47.01c-2.994-4.932-9.42-6.503-14.352-3.51
	C394.883,399.808,393.311,406.234,396.305,411.166z"/>
<path d="M372.263,351.42c-4.934,2.994-6.505,9.421-3.51,14.352l9.083,14.965c1.966,3.24,5.411,5.029,8.942,5.029
	c1.847,0,3.717-0.49,5.411-1.517c4.934-2.994,6.505-9.421,3.51-14.352l-9.083-14.965
	C383.622,349.999,377.195,348.429,372.263,351.42z"/>
</svg>