<?xml version="1.0" encoding="iso-8859-1"?>
<!-- Uploaded to: SVG Repo, www.svgrepo.com, Generator: SVG Repo Mixer Tools -->
<svg height="800px" width="800px" version="1.1" id="Layer_1" xmlns="http://www.w3.org/2000/svg" xmlns:xlink="http://www.w3.org/1999/xlink" 
	 viewBox="0 0 512.001 512.001" xml:space="preserve">
<path style="fill:#A78966;" d="M356.081,268.979v196.024h23.223h23.223V268.979c-7.043-3.355-14.917-5.239-23.223-5.239
	C370.998,263.741,363.124,265.624,356.081,268.979z"/>
<path style="fill:#806749;" d="M356.081,465.005H23.223C10.398,465.005,0,475.401,0,488.227c0,12.825,10.398,23.223,23.223,23.223
	h356.081h108.373c12.825,0,23.223-10.398,23.223-23.223c0-12.827-10.398-23.223-23.223-23.223h-85.15h-23.223H356.081z"/>
<path style="fill:#FFB655;" d="M113.339,0.551c-0.183,0-0.362,0.012-0.545,0.014C51.156,0.86,1.101,51.085,1.101,112.794
	c0,61.707,50.056,111.932,111.692,112.229c0.183,0.002,0.362,0.014,0.545,0.014c61.895,0,112.248-50.351,112.248-112.243
	C225.587,50.902,175.234,0.551,113.339,0.551z"/>
<path style="fill:#EE8700;" d="M1.101,112.794c0,61.707,50.056,111.932,111.692,112.229V0.565
	C51.156,0.86,1.101,51.085,1.101,112.794z"/>
<path style="fill:#A4E276;" d="M505.197,224.097c-21.274-21.275-49.782-30.987-77.681-29.189c8.433-5.417,18.45-8.575,29.196-8.575
	c12.825,0,23.223-10.398,23.223-23.223c0-12.827-10.398-23.223-23.223-23.223c-31.095,0-58.935,14.181-77.409,36.41
	c-18.474-22.229-46.314-36.41-77.409-36.41c-12.825,0-23.223,10.396-23.223,23.223c0,12.825,10.398,23.223,23.223,23.223
	c10.746,0,20.763,3.157,29.196,8.574c-27.9-1.796-56.408,7.916-77.681,29.191c-9.069,9.069-9.069,23.772,0,32.842
	c9.068,9.068,23.774,9.068,32.842,0c7.598-7.598,16.915-12.449,26.709-14.582c-20.995,18.457-34.286,45.484-34.286,75.571
	c0,12.825,10.398,23.223,23.223,23.223c12.825,0,23.223-10.398,23.223-23.223c0-21.572,12.675-40.234,30.964-48.947
	c7.043-3.355,14.917-5.239,23.223-5.239s16.18,1.884,23.223,5.239c18.29,8.713,30.964,27.376,30.964,48.947
	c0,12.825,10.398,23.223,23.223,23.223s23.223-10.398,23.223-23.223c0-30.087-13.29-57.114-34.286-75.57
	c9.792,2.132,19.109,6.982,26.708,14.581c9.068,9.068,23.772,9.068,32.842,0C514.268,247.869,514.268,233.166,505.197,224.097z"/>
<path style="fill:#64C37D;" d="M301.895,139.887c-12.825,0-23.223,10.396-23.223,23.223c0,12.825,10.398,23.223,23.223,23.223
	c10.746,0,20.763,3.157,29.196,8.574c-27.9-1.796-56.408,7.916-77.681,29.191c-9.069,9.069-9.069,23.772,0,32.842
	c9.068,9.068,23.774,9.068,32.842,0c7.598-7.598,16.915-12.449,26.709-14.582c-20.996,18.457-34.288,45.484-34.288,75.571
	c0,12.825,10.398,23.223,23.223,23.223c12.825,0,23.223-10.398,23.223-23.223c0-21.572,12.675-40.234,30.964-48.947
	c7.043-3.355,14.917-5.239,23.223-5.239v-87.444C360.83,154.067,332.99,139.887,301.895,139.887z"/>
</svg>