<?xml version="1.0" encoding="iso-8859-1"?>
<!-- Uploaded to: SVG Repo, www.svgrepo.com, Generator: SVG Repo Mixer Tools -->
<svg height="800px" width="800px" version="1.1" id="Layer_1" xmlns="http://www.w3.org/2000/svg" xmlns:xlink="http://www.w3.org/1999/xlink" 
	 viewBox="0 0 512 512" xml:space="preserve">
<polygon style="fill:#1EB415;" points="344.818,440.494 423.178,31.8 501.538,440.494 "/>
<g>
	<circle style="fill:#90DE3F;" cx="233.006" cy="351.838" r="76.276"/>
	<path style="fill:#90DE3F;" d="M88.786,448.44l-0.003-0.008c-0.091,0.019-21.169,2.723-32.572-8.607
		c-11.404-11.338-8.827-32.422-8.819-32.513l-0.002-0.004l0.007,0.001v-0.005l0.003,0.004c0.174-0.021,21.185-2.699,32.569,8.613
		C91.401,427.278,88.786,448.44,88.786,448.44z"/>
	<path style="fill:#90DE3F;" d="M97.627,415.92c11.384-11.312,32.394-8.635,32.569-8.613l0.003-0.004v0.005l0.007-0.001
		l-0.002,0.004c0.009,0.091,2.586,21.176-8.818,32.513c-11.403,11.331-32.481,8.625-32.572,8.607l-0.003,0.008
		C88.811,448.44,86.196,427.278,97.627,415.92z"/>
</g>
<path d="M388.354,405.568c-0.652,0-1.314-0.062-1.979-0.189c-5.668-1.087-9.381-6.562-8.295-12.229l19.44-101.389
	c1.087-5.665,6.562-9.378,12.229-8.294c5.668,1.087,9.382,6.562,8.295,12.23l-19.44,101.387
	C397.645,402.087,393.266,405.568,388.354,405.568z"/>
<path d="M414.47,269.364c-0.653,0-1.314-0.062-1.979-0.189c-5.667-1.087-9.381-6.562-8.294-12.229l1.52-7.927
	c1.087-5.667,6.56-9.382,12.229-8.294c5.667,1.087,9.381,6.562,8.294,12.229l-1.52,7.927
	C423.761,265.883,419.383,269.364,414.47,269.364z"/>
<path d="M511.67,437.849l-78.23-408.017c-0.944-4.923-5.249-8.481-10.262-8.481c-5.012,0-9.318,3.558-10.262,8.481l-78.36,408.695
	c-0.586,3.059,0.224,6.222,2.208,8.624c1.984,2.402,4.937,3.792,8.054,3.792h68.023v18.808H243.457v-31.84
	c42.908-5.179,76.275-41.791,76.275-86.072c0-47.821-38.904-86.724-86.724-86.724s-86.724,38.904-86.724,86.724
	c0,44.282,33.367,80.893,76.276,86.072v31.84H99.263v-10.738c9.505-0.632,21.033-3.374,29.49-11.777
	c13.34-13.261,12.457-34.387,11.926-40.189c-0.317-9.089-8.976-10.479-16.151-10.479c-12.972,0-26.836,3.433-35.729,13.498
	c-8.909-10.083-22.696-13.334-35.652-13.513c-6.875-0.095-15.308,1.436-16.15,9.701c-0.364,3.281-2.402,26.816,11.849,40.985
	c8.466,8.41,20.009,11.149,29.52,11.777v10.736h-7.764c-5.77,0-10.449,4.678-10.449,10.449c0,5.771,4.679,10.449,10.449,10.449
	h374.604c5.77,0,10.449-4.678,10.449-10.449c0-5.771-4.679-10.449-10.449-10.449h-11.467v-18.808h67.8
	C508.285,450.942,513.368,444.39,511.67,437.849z M167.18,351.838c0-36.297,29.53-65.827,65.827-65.827s65.827,29.53,65.827,65.827
	c0,32.741-24.03,59.967-55.378,64.989v-11.014l30.026-30.027c4.08-4.079,4.08-10.695,0-14.777c-4.081-4.08-10.695-4.08-14.778,0.001
	l-25.699,25.699l-13.835-13.835c-4.08-4.08-10.694-4.081-14.778-0.001c-4.08,4.08-4.08,10.696,0,14.777l18.164,18.165v11.014
	C191.21,411.805,167.18,384.579,167.18,351.838z M104.992,423.331c3.79-3.765,9.997-5.143,14.741-5.623
	c-0.565,5.219-2.11,11.123-5.713,14.704c-3.774,3.751-9.947,5.128-14.683,5.615c-0.01-0.142-0.023-0.288-0.034-0.432
	C99.901,432.526,101.453,426.849,104.992,423.331z M78.258,438.028c-4.735-0.485-10.906-1.862-14.68-5.613
	c-3.645-3.623-5.191-9.522-5.747-14.731c4.725,0.475,10.951,1.85,14.774,5.648c3.541,3.518,5.092,9.186,5.686,14.277
	C78.281,437.748,78.267,437.89,78.258,438.028z M357.46,430.045l65.718-342.756l65.717,342.756H357.46z"/>
<path d="M35.074,469.75H10.449C4.678,469.75,0,474.428,0,480.199c0,5.771,4.678,10.449,10.449,10.449h24.626
	c5.77,0,10.449-4.678,10.449-10.449C45.523,474.428,40.845,469.75,35.074,469.75z"/>
<path d="M500.521,469.75H480.73c-5.77,0-10.449,4.678-10.449,10.449c0,5.771,4.679,10.449,10.449,10.449h19.791
	c5.77,0,10.449-4.678,10.449-10.449C510.97,474.428,506.292,469.75,500.521,469.75z"/>
<path d="M35.001,147.898h-24.55c-5.771,0-10.449-4.678-10.449-10.449C0.002,131.677,4.68,127,10.451,127h24.55
	c5.77,0,10.449,4.678,10.449,10.449S40.771,147.898,35.001,147.898z"/>
<path d="M276.803,214.948H109.601c-5.77,0-10.449-4.678-10.449-10.449c0-5.77,4.679-10.449,10.449-10.449h167.201
	c5.77,0,10.449,4.679,10.449,10.449C287.252,210.269,282.573,214.948,276.803,214.948z"/>
<path d="M74.076,214.948H56.547c-5.77,0-10.449-4.678-10.449-10.449c0-5.77,4.679-10.449,10.449-10.449h17.529
	c5.771,0,10.449,4.679,10.449,10.449S79.847,214.948,74.076,214.948z"/>
<path d="M263.184,181.422h-21.819c-5.771,0-10.449-4.679-10.449-10.449s4.678-10.449,10.449-10.449h21.819
	c5.77,0,10.449,4.679,10.449,10.449C273.633,176.743,268.954,181.422,263.184,181.422z"/>
<path d="M205.839,181.422H37.69c-5.77,0-10.449-4.679-10.449-10.449s4.679-10.449,10.449-10.449h168.15
	c5.77,0,10.449,4.679,10.449,10.449S211.609,181.422,205.839,181.422z"/>
<path d="M261.082,147.898H70.527c-5.77,0-10.449-4.678-10.449-10.449c0-5.772,4.679-10.449,10.449-10.449h190.555
	c18.505,0,33.559-15.048,33.559-33.547c0-18.505-15.054-33.559-33.559-33.559c-18.497,0-33.547,15.054-33.547,33.559
	c0,5.77-4.679,10.449-10.449,10.449c-5.771,0-10.449-4.679-10.449-10.449c0-30.027,24.424-54.457,54.444-54.457
	c30.027,0,54.457,24.429,54.457,54.457C315.538,123.474,291.109,147.898,261.082,147.898z"/>
</svg>